{"title":"The.Wrath.of.Cain.2010.DvDRip.XviD.Ac3.Feel-Free","uid":5814904,"size":1027042769,"categoryP":"video","categoryS":"movies","magnet":"?xt=urn:btih:bb98828755642ae2addfc2d96453b854e1b7f767&amp;dn=The.Wrath.of.Cain.2010.DvDRip.XviD.Ac3.Feel-Free&amp;tr=udp%3A%2F%2Ftracker.openbittorrent.com%3A80&amp;tr=udp%3A%2F%2Fopen.demonii.com%3A1337&amp;tr=udp%3A%2F%2Ftracker.coppersurfer.tk%3A6969&amp;tr=udp%3A%2F%2Fexodus.desync.com%3A6969","seeders":0,"leechers":0,"uploader":"neon","files":-1,"time":1283781193,"description":"Genre:Action\nLanguage: English\n &lt;a href=&quot; http://www.imdb.com/title/tt1465519/&quot; rel=&quot;nofollow&quot; target=&quot;_NEW&quot;&gt; http://www.imdb.com/title/tt1465519/&lt;/a&gt;\n\n\nGeneral\nComplete name :The.Wrath.of.Cain.2010.DvDRip.XviD.Ac3.Feel-Free\nFormat : AVI\nFormat/Info : Audio Video Interleave\nFile size : 979 MiB\nDuration : 1h 23mn\nOverall bit rate : 1 632 Kbps\nVideo #0\nID : 0\nFormat : MPEG-4 Visual\nFormat profile : AdvancedSimple@L5\nFormat settings, BVOP : Yes\nFormat settings, QPel : No\nFormat settings, GMC : No warppoints\nFormat settings, Matrix : Default (H.263)\nMuxing mode : Packed bitstream\nCodec ID : XVID\nCodec ID/Hint : XviD\nDuration : 1h 23mn\nBit rate : 1 367 Kbps\nWidth : 656 pixels\nHeight : 368 pixels\nDisplay aspect ratio : 16:9\nFrame rate : 23.976 fps\nResolution : 24 bits\nColorimetry : 4:2:0\nScan type : Progressive\nBits/(Pixel*Frame) : 0.236\nStream size : 820 MiB (84%)\nWriting library : XviD 1.2.1 (UTC 2008-12-04)\nAudio #1\nID : 1\nFormat : AC-3\nFormat/Info : Audio Coding 3\nCodec ID : 2000\nDuration : 1h 23mn\nBit rate mode : Constant\nBit rate : 256 Kbps\nChannel(s) : 2 channels\nChannel positions : L R\nSampling rate : 48.0 KHz\nStream size : 154 MiB (16%)\nAlignment : Split accross interleaves\nInterleave, duration : 42 ms (1.00 video frame)\nInterleave, preload duration : 500 ms\n","torrent":{"xt":"urn:btih:bb98828755642ae2addfc2d96453b854e1b7f767","amp;dn":"The.Wrath.of.Cain.2010.DvDRip.XviD.Ac3.Feel-Free","amp;tr":["udp%3A%2F%2Ftracker.openbittorrent.com%3A80","udp%3A%2F%2Fopen.demonii.com%3A1337","udp%3A%2F%2Ftracker.coppersurfer.tk%3A6969","udp%3A%2F%2Fexodus.desync.com%3A6969"],"infoHash":"bb98828755642ae2addfc2d96453b854e1b7f767","infoHashBuffer":{"type":"Buffer","data":[187,152,130,135,85,100,42,226,173,223,194,217,100,83,184,84,225,183,247,103]},"announce":[],"urlList":[]}}